<?xml version="1.0"?>
<svg xmlns="http://www.w3.org/2000/svg" xmlns:xlink="http://www.w3.org/1999/xlink" version="1.1" width="920px" height="920px" viewBox="0 0 920 920"><defs><rect id="block" width="36.0000000000" height="36.0000000000" fill="#000000" fill-opacity="1"/></defs><rect x="0" y="0" width="920" height="920" fill="#ffffff" fill-opacity="1"/><use x="10.0000000000" y="10.0000000000" xlink:href="#block"/><use x="46.0000000000" y="10.0000000000" xlink:href="#block"/><use x="82.0000000000" y="10.0000000000" xlink:href="#block"/><use x="118.0000000000" y="10.0000000000" xlink:href="#block"/><use x="154.0000000000" y="10.0000000000" xlink:href="#block"/><use x="190.0000000000" y="10.0000000000" xlink:href="#block"/><use x="226.0000000000" y="10.0000000000" xlink:href="#block"/><use x="370.0000000000" y="10.0000000000" xlink:href="#block"/><use x="442.0000000000" y="10.0000000000" xlink:href="#block"/><use x="550.0000000000" y="10.0000000000" xlink:href="#block"/><use x="658.0000000000" y="10.0000000000" xlink:href="#block"/><use x="694.0000000000" y="10.0000000000" xlink:href="#block"/><use x="730.0000000000" y="10.0000000000" xlink:href="#block"/><use x="766.0000000000" y="10.0000000000" xlink:href="#block"/><use x="802.0000000000" y="10.0000000000" xlink:href="#block"/><use x="838.0000000000" y="10.0000000000" xlink:href="#block"/><use x="874.0000000000" y="10.0000000000" xlink:href="#block"/><use x="10.0000000000" y="46.0000000000" xlink:href="#block"/><use x="226.0000000000" y="46.0000000000" xlink:href="#block"/><use x="298.0000000000" y="46.0000000000" xlink:href="#block"/><use x="370.0000000000" y="46.0000000000" xlink:href="#block"/><use x="514.0000000000" y="46.0000000000" xlink:href="#block"/><use x="586.0000000000" y="46.0000000000" xlink:href="#block"/><use x="658.0000000000" y="46.0000000000" xlink:href="#block"/><use x="874.0000000000" y="46.0000000000" xlink:href="#block"/><use x="10.0000000000" y="82.0000000000" xlink:href="#block"/><use x="82.0000000000" y="82.0000000000" xlink:href="#block"/><use x="118.0000000000" y="82.0000000000" xlink:href="#block"/><use x="154.0000000000" y="82.0000000000" xlink:href="#block"/><use x="226.0000000000" y="82.0000000000" xlink:href="#block"/><use x="442.0000000000" y="82.0000000000" xlink:href="#block"/><use x="586.0000000000" y="82.0000000000" xlink:href="#block"/><use x="658.0000000000" y="82.0000000000" xlink:href="#block"/><use x="730.0000000000" y="82.0000000000" xlink:href="#block"/><use x="766.0000000000" y="82.0000000000" xlink:href="#block"/><use x="802.0000000000" y="82.0000000000" xlink:href="#block"/><use x="874.0000000000" y="82.0000000000" xlink:href="#block"/><use x="10.0000000000" y="118.0000000000" xlink:href="#block"/><use x="82.0000000000" y="118.0000000000" xlink:href="#block"/><use x="118.0000000000" y="118.0000000000" xlink:href="#block"/><use x="154.0000000000" y="118.0000000000" xlink:href="#block"/><use x="226.0000000000" y="118.0000000000" xlink:href="#block"/><use x="298.0000000000" y="118.0000000000" xlink:href="#block"/><use x="334.0000000000" y="118.0000000000" xlink:href="#block"/><use x="370.0000000000" y="118.0000000000" xlink:href="#block"/><use x="442.0000000000" y="118.0000000000" xlink:href="#block"/><use x="514.0000000000" y="118.0000000000" xlink:href="#block"/><use x="550.0000000000" y="118.0000000000" xlink:href="#block"/><use x="658.0000000000" y="118.0000000000" xlink:href="#block"/><use x="730.0000000000" y="118.0000000000" xlink:href="#block"/><use x="766.0000000000" y="118.0000000000" xlink:href="#block"/><use x="802.0000000000" y="118.0000000000" xlink:href="#block"/><use x="874.0000000000" y="118.0000000000" xlink:href="#block"/><use x="10.0000000000" y="154.0000000000" xlink:href="#block"/><use x="82.0000000000" y="154.0000000000" xlink:href="#block"/><use x="118.0000000000" y="154.0000000000" xlink:href="#block"/><use x="154.0000000000" y="154.0000000000" xlink:href="#block"/><use x="226.0000000000" y="154.0000000000" xlink:href="#block"/><use x="334.0000000000" y="154.0000000000" xlink:href="#block"/><use x="550.0000000000" y="154.0000000000" xlink:href="#block"/><use x="586.0000000000" y="154.0000000000" xlink:href="#block"/><use x="658.0000000000" y="154.0000000000" xlink:href="#block"/><use x="730.0000000000" y="154.0000000000" xlink:href="#block"/><use x="766.0000000000" y="154.0000000000" xlink:href="#block"/><use x="802.0000000000" y="154.0000000000" xlink:href="#block"/><use x="874.0000000000" y="154.0000000000" xlink:href="#block"/><use x="10.0000000000" y="190.0000000000" xlink:href="#block"/><use x="226.0000000000" y="190.0000000000" xlink:href="#block"/><use x="298.0000000000" y="190.0000000000" xlink:href="#block"/><use x="334.0000000000" y="190.0000000000" xlink:href="#block"/><use x="406.0000000000" y="190.0000000000" xlink:href="#block"/><use x="442.0000000000" y="190.0000000000" xlink:href="#block"/><use x="514.0000000000" y="190.0000000000" xlink:href="#block"/><use x="658.0000000000" y="190.0000000000" xlink:href="#block"/><use x="874.0000000000" y="190.0000000000" xlink:href="#block"/><use x="10.0000000000" y="226.0000000000" xlink:href="#block"/><use x="46.0000000000" y="226.0000000000" xlink:href="#block"/><use x="82.0000000000" y="226.0000000000" xlink:href="#block"/><use x="118.0000000000" y="226.0000000000" xlink:href="#block"/><use x="154.0000000000" y="226.0000000000" xlink:href="#block"/><use x="190.0000000000" y="226.0000000000" xlink:href="#block"/><use x="226.0000000000" y="226.0000000000" xlink:href="#block"/><use x="298.0000000000" y="226.0000000000" xlink:href="#block"/><use x="370.0000000000" y="226.0000000000" xlink:href="#block"/><use x="442.0000000000" y="226.0000000000" xlink:href="#block"/><use x="514.0000000000" y="226.0000000000" xlink:href="#block"/><use x="586.0000000000" y="226.0000000000" xlink:href="#block"/><use x="658.0000000000" y="226.0000000000" xlink:href="#block"/><use x="694.0000000000" y="226.0000000000" xlink:href="#block"/><use x="730.0000000000" y="226.0000000000" xlink:href="#block"/><use x="766.0000000000" y="226.0000000000" xlink:href="#block"/><use x="802.0000000000" y="226.0000000000" xlink:href="#block"/><use x="838.0000000000" y="226.0000000000" xlink:href="#block"/><use x="874.0000000000" y="226.0000000000" xlink:href="#block"/><use x="334.0000000000" y="262.0000000000" xlink:href="#block"/><use x="370.0000000000" y="262.0000000000" xlink:href="#block"/><use x="406.0000000000" y="262.0000000000" xlink:href="#block"/><use x="478.0000000000" y="262.0000000000" xlink:href="#block"/><use x="550.0000000000" y="262.0000000000" xlink:href="#block"/><use x="586.0000000000" y="262.0000000000" xlink:href="#block"/><use x="10.0000000000" y="298.0000000000" xlink:href="#block"/><use x="46.0000000000" y="298.0000000000" xlink:href="#block"/><use x="82.0000000000" y="298.0000000000" xlink:href="#block"/><use x="118.0000000000" y="298.0000000000" xlink:href="#block"/><use x="154.0000000000" y="298.0000000000" xlink:href="#block"/><use x="226.0000000000" y="298.0000000000" xlink:href="#block"/><use x="262.0000000000" y="298.0000000000" xlink:href="#block"/><use x="298.0000000000" y="298.0000000000" xlink:href="#block"/><use x="334.0000000000" y="298.0000000000" xlink:href="#block"/><use x="406.0000000000" y="298.0000000000" xlink:href="#block"/><use x="550.0000000000" y="298.0000000000" xlink:href="#block"/><use x="622.0000000000" y="298.0000000000" xlink:href="#block"/><use x="694.0000000000" y="298.0000000000" xlink:href="#block"/><use x="766.0000000000" y="298.0000000000" xlink:href="#block"/><use x="838.0000000000" y="298.0000000000" xlink:href="#block"/><use x="154.0000000000" y="334.0000000000" xlink:href="#block"/><use x="370.0000000000" y="334.0000000000" xlink:href="#block"/><use x="442.0000000000" y="334.0000000000" xlink:href="#block"/><use x="514.0000000000" y="334.0000000000" xlink:href="#block"/><use x="622.0000000000" y="334.0000000000" xlink:href="#block"/><use x="694.0000000000" y="334.0000000000" xlink:href="#block"/><use x="730.0000000000" y="334.0000000000" xlink:href="#block"/><use x="874.0000000000" y="334.0000000000" xlink:href="#block"/><use x="118.0000000000" y="370.0000000000" xlink:href="#block"/><use x="154.0000000000" y="370.0000000000" xlink:href="#block"/><use x="226.0000000000" y="370.0000000000" xlink:href="#block"/><use x="298.0000000000" y="370.0000000000" xlink:href="#block"/><use x="370.0000000000" y="370.0000000000" xlink:href="#block"/><use x="514.0000000000" y="370.0000000000" xlink:href="#block"/><use x="550.0000000000" y="370.0000000000" xlink:href="#block"/><use x="586.0000000000" y="370.0000000000" xlink:href="#block"/><use x="622.0000000000" y="370.0000000000" xlink:href="#block"/><use x="658.0000000000" y="370.0000000000" xlink:href="#block"/><use x="730.0000000000" y="370.0000000000" xlink:href="#block"/><use x="802.0000000000" y="370.0000000000" xlink:href="#block"/><use x="82.0000000000" y="406.0000000000" xlink:href="#block"/><use x="154.0000000000" y="406.0000000000" xlink:href="#block"/><use x="298.0000000000" y="406.0000000000" xlink:href="#block"/><use x="442.0000000000" y="406.0000000000" xlink:href="#block"/><use x="622.0000000000" y="406.0000000000" xlink:href="#block"/><use x="82.0000000000" y="442.0000000000" xlink:href="#block"/><use x="154.0000000000" y="442.0000000000" xlink:href="#block"/><use x="190.0000000000" y="442.0000000000" xlink:href="#block"/><use x="226.0000000000" y="442.0000000000" xlink:href="#block"/><use x="262.0000000000" y="442.0000000000" xlink:href="#block"/><use x="298.0000000000" y="442.0000000000" xlink:href="#block"/><use x="334.0000000000" y="442.0000000000" xlink:href="#block"/><use x="370.0000000000" y="442.0000000000" xlink:href="#block"/><use x="442.0000000000" y="442.0000000000" xlink:href="#block"/><use x="550.0000000000" y="442.0000000000" xlink:href="#block"/><use x="586.0000000000" y="442.0000000000" xlink:href="#block"/><use x="622.0000000000" y="442.0000000000" xlink:href="#block"/><use x="658.0000000000" y="442.0000000000" xlink:href="#block"/><use x="694.0000000000" y="442.0000000000" xlink:href="#block"/><use x="730.0000000000" y="442.0000000000" xlink:href="#block"/><use x="766.0000000000" y="442.0000000000" xlink:href="#block"/><use x="838.0000000000" y="442.0000000000" xlink:href="#block"/><use x="874.0000000000" y="442.0000000000" xlink:href="#block"/><use x="10.0000000000" y="478.0000000000" xlink:href="#block"/><use x="46.0000000000" y="478.0000000000" xlink:href="#block"/><use x="154.0000000000" y="478.0000000000" xlink:href="#block"/><use x="262.0000000000" y="478.0000000000" xlink:href="#block"/><use x="298.0000000000" y="478.0000000000" xlink:href="#block"/><use x="514.0000000000" y="478.0000000000" xlink:href="#block"/><use x="586.0000000000" y="478.0000000000" xlink:href="#block"/><use x="622.0000000000" y="478.0000000000" xlink:href="#block"/><use x="658.0000000000" y="478.0000000000" xlink:href="#block"/><use x="694.0000000000" y="478.0000000000" xlink:href="#block"/><use x="730.0000000000" y="478.0000000000" xlink:href="#block"/><use x="838.0000000000" y="478.0000000000" xlink:href="#block"/><use x="10.0000000000" y="514.0000000000" xlink:href="#block"/><use x="82.0000000000" y="514.0000000000" xlink:href="#block"/><use x="118.0000000000" y="514.0000000000" xlink:href="#block"/><use x="226.0000000000" y="514.0000000000" xlink:href="#block"/><use x="370.0000000000" y="514.0000000000" xlink:href="#block"/><use x="406.0000000000" y="514.0000000000" xlink:href="#block"/><use x="442.0000000000" y="514.0000000000" xlink:href="#block"/><use x="658.0000000000" y="514.0000000000" xlink:href="#block"/><use x="730.0000000000" y="514.0000000000" xlink:href="#block"/><use x="802.0000000000" y="514.0000000000" xlink:href="#block"/><use x="874.0000000000" y="514.0000000000" xlink:href="#block"/><use x="10.0000000000" y="550.0000000000" xlink:href="#block"/><use x="298.0000000000" y="550.0000000000" xlink:href="#block"/><use x="334.0000000000" y="550.0000000000" xlink:href="#block"/><use x="406.0000000000" y="550.0000000000" xlink:href="#block"/><use x="838.0000000000" y="550.0000000000" xlink:href="#block"/><use x="874.0000000000" y="550.0000000000" xlink:href="#block"/><use x="10.0000000000" y="586.0000000000" xlink:href="#block"/><use x="118.0000000000" y="586.0000000000" xlink:href="#block"/><use x="190.0000000000" y="586.0000000000" xlink:href="#block"/><use x="226.0000000000" y="586.0000000000" xlink:href="#block"/><use x="334.0000000000" y="586.0000000000" xlink:href="#block"/><use x="370.0000000000" y="586.0000000000" xlink:href="#block"/><use x="406.0000000000" y="586.0000000000" xlink:href="#block"/><use x="550.0000000000" y="586.0000000000" xlink:href="#block"/><use x="586.0000000000" y="586.0000000000" xlink:href="#block"/><use x="622.0000000000" y="586.0000000000" xlink:href="#block"/><use x="658.0000000000" y="586.0000000000" xlink:href="#block"/><use x="694.0000000000" y="586.0000000000" xlink:href="#block"/><use x="730.0000000000" y="586.0000000000" xlink:href="#block"/><use x="766.0000000000" y="586.0000000000" xlink:href="#block"/><use x="874.0000000000" y="586.0000000000" xlink:href="#block"/><use x="298.0000000000" y="622.0000000000" xlink:href="#block"/><use x="334.0000000000" y="622.0000000000" xlink:href="#block"/><use x="442.0000000000" y="622.0000000000" xlink:href="#block"/><use x="478.0000000000" y="622.0000000000" xlink:href="#block"/><use x="586.0000000000" y="622.0000000000" xlink:href="#block"/><use x="730.0000000000" y="622.0000000000" xlink:href="#block"/><use x="874.0000000000" y="622.0000000000" xlink:href="#block"/><use x="10.0000000000" y="658.0000000000" xlink:href="#block"/><use x="46.0000000000" y="658.0000000000" xlink:href="#block"/><use x="82.0000000000" y="658.0000000000" xlink:href="#block"/><use x="118.0000000000" y="658.0000000000" xlink:href="#block"/><use x="154.0000000000" y="658.0000000000" xlink:href="#block"/><use x="190.0000000000" y="658.0000000000" xlink:href="#block"/><use x="226.0000000000" y="658.0000000000" xlink:href="#block"/><use x="298.0000000000" y="658.0000000000" xlink:href="#block"/><use x="334.0000000000" y="658.0000000000" xlink:href="#block"/><use x="478.0000000000" y="658.0000000000" xlink:href="#block"/><use x="514.0000000000" y="658.0000000000" xlink:href="#block"/><use x="586.0000000000" y="658.0000000000" xlink:href="#block"/><use x="658.0000000000" y="658.0000000000" xlink:href="#block"/><use x="730.0000000000" y="658.0000000000" xlink:href="#block"/><use x="802.0000000000" y="658.0000000000" xlink:href="#block"/><use x="838.0000000000" y="658.0000000000" xlink:href="#block"/><use x="874.0000000000" y="658.0000000000" xlink:href="#block"/><use x="10.0000000000" y="694.0000000000" xlink:href="#block"/><use x="226.0000000000" y="694.0000000000" xlink:href="#block"/><use x="334.0000000000" y="694.0000000000" xlink:href="#block"/><use x="442.0000000000" y="694.0000000000" xlink:href="#block"/><use x="478.0000000000" y="694.0000000000" xlink:href="#block"/><use x="586.0000000000" y="694.0000000000" xlink:href="#block"/><use x="730.0000000000" y="694.0000000000" xlink:href="#block"/><use x="766.0000000000" y="694.0000000000" xlink:href="#block"/><use x="10.0000000000" y="730.0000000000" xlink:href="#block"/><use x="82.0000000000" y="730.0000000000" xlink:href="#block"/><use x="118.0000000000" y="730.0000000000" xlink:href="#block"/><use x="154.0000000000" y="730.0000000000" xlink:href="#block"/><use x="226.0000000000" y="730.0000000000" xlink:href="#block"/><use x="298.0000000000" y="730.0000000000" xlink:href="#block"/><use x="442.0000000000" y="730.0000000000" xlink:href="#block"/><use x="514.0000000000" y="730.0000000000" xlink:href="#block"/><use x="586.0000000000" y="730.0000000000" xlink:href="#block"/><use x="622.0000000000" y="730.0000000000" xlink:href="#block"/><use x="658.0000000000" y="730.0000000000" xlink:href="#block"/><use x="694.0000000000" y="730.0000000000" xlink:href="#block"/><use x="730.0000000000" y="730.0000000000" xlink:href="#block"/><use x="766.0000000000" y="730.0000000000" xlink:href="#block"/><use x="10.0000000000" y="766.0000000000" xlink:href="#block"/><use x="82.0000000000" y="766.0000000000" xlink:href="#block"/><use x="118.0000000000" y="766.0000000000" xlink:href="#block"/><use x="154.0000000000" y="766.0000000000" xlink:href="#block"/><use x="226.0000000000" y="766.0000000000" xlink:href="#block"/><use x="298.0000000000" y="766.0000000000" xlink:href="#block"/><use x="550.0000000000" y="766.0000000000" xlink:href="#block"/><use x="586.0000000000" y="766.0000000000" xlink:href="#block"/><use x="622.0000000000" y="766.0000000000" xlink:href="#block"/><use x="730.0000000000" y="766.0000000000" xlink:href="#block"/><use x="838.0000000000" y="766.0000000000" xlink:href="#block"/><use x="874.0000000000" y="766.0000000000" xlink:href="#block"/><use x="10.0000000000" y="802.0000000000" xlink:href="#block"/><use x="82.0000000000" y="802.0000000000" xlink:href="#block"/><use x="118.0000000000" y="802.0000000000" xlink:href="#block"/><use x="154.0000000000" y="802.0000000000" xlink:href="#block"/><use x="226.0000000000" y="802.0000000000" xlink:href="#block"/><use x="298.0000000000" y="802.0000000000" xlink:href="#block"/><use x="370.0000000000" y="802.0000000000" xlink:href="#block"/><use x="406.0000000000" y="802.0000000000" xlink:href="#block"/><use x="442.0000000000" y="802.0000000000" xlink:href="#block"/><use x="730.0000000000" y="802.0000000000" xlink:href="#block"/><use x="802.0000000000" y="802.0000000000" xlink:href="#block"/><use x="874.0000000000" y="802.0000000000" xlink:href="#block"/><use x="10.0000000000" y="838.0000000000" xlink:href="#block"/><use x="226.0000000000" y="838.0000000000" xlink:href="#block"/><use x="298.0000000000" y="838.0000000000" xlink:href="#block"/><use x="370.0000000000" y="838.0000000000" xlink:href="#block"/><use x="406.0000000000" y="838.0000000000" xlink:href="#block"/><use x="514.0000000000" y="838.0000000000" xlink:href="#block"/><use x="550.0000000000" y="838.0000000000" xlink:href="#block"/><use x="622.0000000000" y="838.0000000000" xlink:href="#block"/><use x="658.0000000000" y="838.0000000000" xlink:href="#block"/><use x="694.0000000000" y="838.0000000000" xlink:href="#block"/><use x="730.0000000000" y="838.0000000000" xlink:href="#block"/><use x="766.0000000000" y="838.0000000000" xlink:href="#block"/><use x="838.0000000000" y="838.0000000000" xlink:href="#block"/><use x="10.0000000000" y="874.0000000000" xlink:href="#block"/><use x="46.0000000000" y="874.0000000000" xlink:href="#block"/><use x="82.0000000000" y="874.0000000000" xlink:href="#block"/><use x="118.0000000000" y="874.0000000000" xlink:href="#block"/><use x="154.0000000000" y="874.0000000000" xlink:href="#block"/><use x="190.0000000000" y="874.0000000000" xlink:href="#block"/><use x="226.0000000000" y="874.0000000000" xlink:href="#block"/><use x="298.0000000000" y="874.0000000000" xlink:href="#block"/><use x="406.0000000000" y="874.0000000000" xlink:href="#block"/><use x="622.0000000000" y="874.0000000000" xlink:href="#block"/><use x="802.0000000000" y="874.0000000000" xlink:href="#block"/><use x="838.0000000000" y="874.0000000000" xlink:href="#block"/><use x="874.0000000000" y="874.0000000000" xlink:href="#block"/></svg>
