<?xml version="1.0" encoding="UTF-8" standalone="no"?>
<svg
   width="380"
   height="380"
   version="1.1"
   viewBox="0 0 380 380"
   xml:space="preserve"
   id="svg8"
   sodipodi:docname="_inkscape_modified_master-v-balashihe-rf-screwdriver.svg"
   inkscape:version="1.2.2 (732a01da63, 2022-12-09)"
   xmlns:inkscape="http://www.inkscape.org/namespaces/inkscape"
   xmlns:sodipodi="http://sodipodi.sourceforge.net/DTD/sodipodi-0.dtd"
   xmlns="http://www.w3.org/2000/svg"
   xmlns:svg="http://www.w3.org/2000/svg"><defs
   id="defs12" /><sodipodi:namedview
   id="namedview10"
   pagecolor="#505050"
   bordercolor="#ffffff"
   borderopacity="1"
   inkscape:showpageshadow="0"
   inkscape:pageopacity="0"
   inkscape:pagecheckerboard="1"
   inkscape:deskcolor="#505050"
   showgrid="false"
   inkscape:zoom="1.5574957"
   inkscape:cx="81.862184"
   inkscape:cy="193.25896"
   inkscape:window-width="1920"
   inkscape:window-height="1017"
   inkscape:window-x="-8"
   inkscape:window-y="-8"
   inkscape:window-maximized="1"
   inkscape:current-layer="svg8" />
    <g
   transform="translate(0.00256132,-642.35952)"
   id="g4">
        <path
   transform="translate(9.7201,10.542)"
   d="m 247.57,739.66 -8.5098,6.1016 -8.5117,6.0996 -2.1191,6.0684 -2.1172,6.0684 -28.93,28.926 4.2539,4.2812 c 2.3402,2.3538 4.5408,4.2793 4.8906,4.2793 0.34986,0 6.8396,-6.39 14.42,-14.199 h -0.002 l 13.785,-14.199 6.5391,-2.1367 6.5391,-2.1387 5.7578,-8.375 c 3.1663,-4.6065 5.8399,-8.6291 5.9434,-8.9395 0.10347,-0.31032 -2.5399,-3.0997 -5.875,-6.1992 l -6.0645,-5.6367 z m -122.96,7.1777 c -0.69024,0.009 -0.95435,0.25576 -1.3574,0.6543 -1.0764,1.0645 -1.0187,1.1402 8.1289,10.346 7.6992,7.7474 9.2148,9.5374 9.2148,10.883 0,1.3356 -1.3372,2.9487 -7.8477,9.4707 -5.9186,5.9292 -8.186,7.8613 -9.2266,7.8613 -1.0483,0 -3.5844,-2.201 -10.566,-9.1738 -9.1956,-9.1839 -10.393,-9.9898 -11.303,-7.6191 -0.18343,0.47809 0.84718,5.418 2.2891,10.979 l 2.6211,10.111 5.3027,5.2383 5.3047,5.2402 10.023,2.3555 10.025,2.3535 62.707,62.922 2.3359,10.027 2.334,10.025 5.5176,5.0898 5.5195,5.0879 9.4707,2.623 c 5.2094,1.4433 9.7436,2.6415 10.076,2.6621 0.33189,0.021 1.0622,-0.47012 1.623,-1.0898 h 0.002 c 1.0084,-1.1142 0.91681,-1.2291 -8.1836,-10.342 -7.7772,-7.7872 -9.2031,-9.4697 -9.2031,-10.855 0,-1.3722 1.2394,-2.8812 7.5723,-9.2266 10.163,-10.181 8.7272,-10.288 20.564,1.5332 9.1012,9.0895 9.134,9.1163 10.162,7.9805 1.0122,-1.1186 0.98245,-1.3251 -1.6191,-11.188 l -2.6504,-10.045 -10.52,-10.688 -19.926,-4.6524 -31.443,-31.348 -31.445,-31.348 -1.8125,-7.5586 c -3.324,-13.866 -2.699,-12.574 -8.793,-18.197 l -5.4375,-5.0176 -9.8672,-2.7558 c -6.1123,-1.7077 -8.4434,-2.3548 -9.5938,-2.3398 z m 54.297,35.99 -2.6289,2.5625 -2.627,2.5644 18.883,18.891 18.883,18.889 2.7617,-2.791 2.7598,-2.791 -38.031,-37.324 z m -33.914,38.799 -19.857,19.834 c -21.691,21.664 -22.551,22.752 -23.787,30.086 -0.86384,5.13 0.0683,8.963 3.1894,13.115 2.6655,3.5459 8.0455,8.7495 11.197,10.83 5.0661,3.3437 12.012,3.6255 18.248,0.74023 3.226,-1.4927 5.586,-3.6575 23.699,-21.729 l 20.117,-20.07 -3.2773,-3.3125 -3.2793,-3.3125 -8.3672,8.2578 c -7.6174,7.5184 -8.5429,8.2578 -10.322,8.2578 -1.4553,0 -2.2453,-0.36994 -3.0957,-1.4512 -2.3967,-3.0468 -1.8137,-4.0806 7.7402,-13.717 l 7.6621,-7.7285 -3.4492,-3.3984 -3.4492,-3.3965 -8.6621,8.2324 c -9.3385,8.8753 -10.377,9.4384 -12.939,7.0312 -0.86266,-0.81036 -1.2754,-1.8233 -1.2754,-3.1289 0,-1.7508 0.77022,-2.706 8.2656,-10.258 l 8.2656,-8.3281 -3.3106,-3.2773 -3.3125,-3.2774 z"
   fill="#c59457"
   stroke-width="0.89871"
   id="path2" />
    </g>
    <path
   d="m 230.84133,10.01179 c -0.58389,-0.036989 -0.94709,0.01204 -1.04689,0.162109 -0.20697,0.31148 -4.19608,6.716986 -8.86515,14.231969 -5.51897,8.883281 -8.74115,13.567971 -9.20895,13.388972 -0.39563,-0.1521 -5.34997,-0.587469 -11.00994,-0.966798 -8.26266,-0.553849 -12.26793,-0.551419 -20.32389,0.0098 -5.51817,0.385009 -10.66194,0.826288 -11.43394,0.980468 -1.31279,0.262549 -1.94409,-0.596409 -9.88474,-13.440972 -4.66538,-7.546483 -8.65906,-13.924969 -8.87496,-14.173969 -0.88442,-1.0190977 -18.72289,4.223391 -29.99983,8.816381 -12.00093,4.887989 -29.029833,14.09697 -29.042833,15.706966 -0.009,0.476189 1.606691,7.651984 3.580081,15.944966 1.973289,8.292982 3.58788,15.384967 3.58788,15.759967 0,0.374339 -2.047989,2.263095 -4.552675,4.199191 -5.858368,4.52859 -18.494899,17.178963 -23.019874,23.04295 -1.93429,2.507095 -3.912379,4.553491 -4.394476,4.548791 -0.482108,-0.006 -7.831558,-1.605297 -16.331911,-3.558593 l -15.454916,-3.552692 -0.939445,1.212897 c -1.665691,2.152996 -8.047156,13.755967 -10.845941,19.720947 -3.810677,8.12178 -7.890955,19.36396 -10.530941,29.00194 -1.235793,4.51139 -2.247987,8.36758 -2.247987,8.57028 0,0.20279 6.350565,4.32539 14.112921,9.16208 l 14.114923,8.79488 -0.332028,3.3144 c -1.478492,14.79596 -1.421192,27.12694 0.175779,38.51391 l 0.439447,3.1504 -11.354938,7.04298 c -6.246866,3.87309 -12.646929,7.86029 -14.22092,8.85938 l -2.859385,1.8164 1.85939,7.05078 c 2.503687,9.49598 6.379465,20.49596 10.196943,28.94094 3.228582,7.14309 9.907046,19.36796 11.880935,21.74596 l 1.101594,1.33009 16.009913,-3.81249 16.007912,-3.81049 1.380893,1.7559 c 7.494759,9.53828 17.188906,19.41195 25.806859,26.28294 2.973084,2.3708 4.472575,3.93059 4.316376,4.48829 -0.745196,2.66139 -6.939462,30.49694 -6.939462,31.18393 0,1.6381 18.209906,11.38698 29.808826,15.95897 8.99675,3.54619 25.18786,8.54898 27.87485,8.61328 0.85545,0.0211 3.08628,-3.15119 9.90615,-14.09597 l 0.002,-0.002 8.79875,-14.12497 2.51368,0.36914 c 6.03927,0.88608 12.93793,1.378 19.3499,1.3828 6.25116,0 8.75555,-0.16523 19.59789,-1.3477 l 3.31058,-0.36328 8.11716,13.16397 c 4.46387,7.23889 8.45215,13.61997 8.86325,14.18197 0.71974,0.98275 0.98956,0.95399 7.33196,-0.75195 8.95935,-2.40949 19.49289,-6.12238 28.24585,-9.95697 9.61554,-4.21259 23.89687,-12.04898 23.88887,-13.10898 0,-0.22392 -1.69819,-7.55338 -3.77338,-16.28696 l -3.77338,-15.88097 5.57027,-4.54099 c 6.94736,-5.66429 16.42991,-15.16397 21.82388,-21.86095 2.26099,-2.80719 4.46427,-5.10349 4.89647,-5.10349 0.43227,0 7.71796,1.6166 16.19091,3.59179 8.47306,1.9753 15.50692,3.59179 15.62892,3.59179 0.59058,0 6.32456,-10.30697 10.20894,-18.34796 5.23997,-10.84797 9.09855,-21.08395 12.12894,-32.18393 1.73889,-6.36738 2.09868,-8.36008 1.56249,-8.68558 -0.38268,-0.23177 -6.78217,-4.22959 -14.22093,-8.88278 -10.79094,-6.75099 -13.49892,-8.68098 -13.39792,-9.54878 1.69199,-14.59297 1.61779,-33.51093 -0.16601,-42.31791 -0.27847,-1.3751 0.41266,-1.8916 13.33793,-9.94728 7.49695,-4.67239 13.89192,-8.66388 14.21292,-8.87108 1.22099,-0.7882 -3.93418,-18.40896 -8.98825,-30.71693 -3.64018,-8.86428 -11.69194,-24.655942 -14.63292,-28.702933 -0.0495,-0.06856 -7.40336,1.614896 -16.34191,3.744092 l -16.25192,3.873092 -1.65619,-2.080096 c -8.06005,-10.124978 -16.34791,-18.497961 -26.07985,-26.345944 -2.20099,-1.774896 -4.00198,-3.317993 -4.00198,-3.427692 0,-0.10986 1.61259,-7.154885 3.58588,-15.655967 1.97339,-8.501682 3.58788,-15.820966 3.58788,-16.263965 0,-1.555897 -16.27291,-10.362978 -28.26585,-15.296967 -10.68494,-4.396191 -25.56286,-8.926281 -29.64984,-9.18548 z M 189.99956,69.284662 A 120.70934,120.70974 0 0 1 310.7089,189.9944 120.70934,120.70974 0 0 1 189.99956,310.70414 120.70934,120.70974 0 0 1 69.290226,189.9944 120.70934,120.70974 0 0 1 189.99956,69.284662 Z"
   fill="#c59457"
   stroke-width="0.00200379"
   id="path6">
        <animateTransform
   id="gear_logo"
   attributeName="transform"
   type="rotate"
   from="0 190 190"
   to="135 190 190"
   begin="0s;gear_logo.end"
   dur="1.25s">

        </animateTransform>
    </path>
</svg>
