<?xml version="1.0" encoding="UTF-8"?>
<svg width="380" height="380" version="1.1" viewBox="0 0 380 380" xml:space="preserve"
    xmlns="http://www.w3.org/2000/svg">
    <g transform="translate(0,-642.36)">
        <path transform="translate(9.7201 10.542)"
            d="m247.57 739.66-8.5098 6.1016-8.5117 6.0996-2.1191 6.0684-2.1172 6.0684-28.93 28.926 4.2539 4.2812c2.3402 2.3538 4.5408 4.2793 4.8906 4.2793 0.34986 0 6.8396-6.39 14.42-14.199h-0.00196l13.785-14.199 6.5391-2.1367 6.5391-2.1387 5.7578-8.375c3.1663-4.6065 5.8399-8.6291 5.9434-8.9395 0.10347-0.31032-2.5399-3.0997-5.875-6.1992l-6.0645-5.6367zm-122.96 7.1777c-0.69024 9e-3 -0.95435 0.25576-1.3574 0.6543-1.0764 1.0645-1.0187 1.1402 8.1289 10.346 7.6992 7.7474 9.2148 9.5374 9.2148 10.883 0 1.3356-1.3372 2.9487-7.8477 9.4707-5.9186 5.9292-8.186 7.8613-9.2266 7.8613-1.0483 0-3.5844-2.201-10.566-9.1738-9.1956-9.1839-10.393-9.9898-11.303-7.6191-0.18343 0.47809 0.84718 5.418 2.2891 10.979l2.6211 10.111 5.3027 5.2383 5.3047 5.2402 10.023 2.3555 10.025 2.3535 62.707 62.922 2.3359 10.027 2.334 10.025 5.5176 5.0898 5.5195 5.0879 9.4707 2.623c5.2094 1.4433 9.7436 2.6415 10.076 2.6621 0.33189 0.021 1.0622-0.47012 1.623-1.0898h0.00195c1.0084-1.1142 0.91681-1.2291-8.1836-10.342-7.7772-7.7872-9.2031-9.4697-9.2031-10.855 0-1.3722 1.2394-2.8812 7.5723-9.2266 10.163-10.181 8.7272-10.288 20.564 1.5332 9.1012 9.0895 9.134 9.1163 10.162 7.9805 1.0122-1.1186 0.98245-1.3251-1.6191-11.188l-2.6504-10.045-10.52-10.688-19.926-4.6524-31.443-31.348-31.445-31.348-1.8125-7.5586c-3.324-13.866-2.699-12.574-8.793-18.197l-5.4375-5.0176-9.8672-2.7558c-6.1123-1.7077-8.4434-2.3548-9.5938-2.3398zm54.297 35.99-2.6289 2.5625-2.627 2.5644 18.883 18.891 18.883 18.889 2.7617-2.791 2.7598-2.791-38.031-37.324zm-33.914 38.799-19.857 19.834c-21.691 21.664-22.551 22.752-23.787 30.086-0.86384 5.13 0.0683 8.963 3.1894 13.115 2.6655 3.5459 8.0455 8.7495 11.197 10.83 5.0661 3.3437 12.012 3.6255 18.248 0.74023 3.226-1.4927 5.586-3.6575 23.699-21.729l20.117-20.07-3.2773-3.3125-3.2793-3.3125-8.3672 8.2578c-7.6174 7.5184-8.5429 8.2578-10.322 8.2578-1.4553 0-2.2453-0.36994-3.0957-1.4512-2.3967-3.0468-1.8137-4.0806 7.7402-13.717l7.6621-7.7285-3.4492-3.3984-3.4492-3.3965-8.6621 8.2324c-9.3385 8.8753-10.377 9.4384-12.939 7.0312-0.86266-0.81036-1.2754-1.8233-1.2754-3.1289 0-1.7508 0.77022-2.706 8.2656-10.258l8.2656-8.3281-3.3106-3.2773-3.3125-3.2774z"
            fill="#C59457" stroke-width=".89871" />
    </g>
    <path
        d="m230.84 10.012c-0.5839-0.036989-0.9471 0.01204-1.0469 0.16211-0.20697 0.31148-4.1961 6.717-8.8652 14.232-5.519 8.8833-8.7412 13.568-9.209 13.389-0.39563-0.1521-5.35-0.58747-11.01-0.9668-8.2627-0.55385-12.268-0.55142-20.324 0.0098-5.5182 0.38501-10.662 0.82629-11.434 0.98047-1.3128 0.26255-1.9441-0.59641-9.8848-13.441-4.6654-7.5465-8.6591-13.925-8.875-14.174-0.88443-1.0191-18.723 4.2234-30 8.8164-12.001 4.888-29.03 14.097-29.043 15.707-9e-3 0.47619 1.6067 7.652 3.5801 15.945 1.9733 8.293 3.5879 15.385 3.5879 15.76 0 0.37434-2.048 2.2631-4.5527 4.1992-5.8584 4.5286-18.495 17.179-23.02 23.043-1.9343 2.5071-3.9124 4.5535-4.3945 4.5488-0.48211-6e-3 -7.8316-1.6053-16.332-3.5586l-15.455-3.5527-0.93945 1.2129c-1.6657 2.153-8.0472 13.756-10.846 19.721-3.8107 8.1218-7.891 19.364-10.531 29.002-1.2358 4.5114-2.248 8.3676-2.248 8.5703 0 0.20279 6.3506 4.3254 14.113 9.1621l14.115 8.7949-0.33203 3.3144c-1.4785 14.796-1.4212 27.127 0.17578 38.514l0.43945 3.1504-11.355 7.043c-6.2469 3.8731-12.647 7.8603-14.221 8.8594l-2.8594 1.8164 1.8594 7.0508c2.5037 9.496 6.3795 20.496 10.197 28.941 3.2286 7.1431 9.9071 19.368 11.881 21.746l1.1016 1.3301 16.01-3.8125 16.008-3.8105 1.3809 1.7559c7.4948 9.5383 17.189 19.412 25.807 26.283 2.9731 2.3708 4.4726 3.9306 4.3164 4.4883-0.7452 2.6614-6.9395 30.497-6.9395 31.184 0 1.6381 18.21 11.387 29.809 15.959 8.9968 3.5462 25.188 8.549 27.875 8.6133 0.85546 0.0211 3.0863-3.1512 9.9062-14.096l2e-3 -2e-3 8.7988-14.125 2.5137 0.36914c6.0393 0.88608 12.938 1.378 19.35 1.3828 6.2512 0 8.7556-0.16523 19.598-1.3477l3.3106-0.36328 8.1172 13.164c4.4639 7.2389 8.4522 13.62 8.8633 14.182 0.71974 0.98275 0.98957 0.95399 7.332-0.75195 8.9594-2.4095 19.493-6.1224 28.246-9.957 9.6156-4.2126 23.897-12.049 23.889-13.109 0-0.22392-1.6982-7.5534-3.7734-16.287l-3.7734-15.881 5.5703-4.541c6.9474-5.6643 16.43-15.164 21.824-21.861 2.261-2.8072 4.4643-5.1035 4.8965-5.1035 0.43227 0 7.718 1.6166 16.191 3.5918 8.4731 1.9753 15.507 3.5918 15.629 3.5918 0.59059 0 6.3246-10.307 10.209-18.348 5.24-10.848 9.0986-21.084 12.129-32.184 1.7389-6.3674 2.0987-8.3601 1.5625-8.6856-0.38268-0.23177-6.7822-4.2296-14.221-8.8828-10.791-6.751-13.499-8.681-13.398-9.5488 1.692-14.593 1.6178-33.511-0.16601-42.318-0.27847-1.3751 0.41266-1.8916 13.338-9.9473 7.497-4.6724 13.892-8.6639 14.213-8.8711 1.221-0.7882-3.9342-18.409-8.9883-30.717-3.6402-8.8643-11.692-24.656-14.633-28.703-0.0495-0.06856-7.4034 1.6149-16.342 3.7441l-16.252 3.8731-1.6562-2.0801c-8.0601-10.125-16.348-18.498-26.08-26.346-2.201-1.7749-4.002-3.318-4.002-3.4277 0-0.10986 1.6126-7.1549 3.5859-15.656 1.9734-8.5017 3.5879-15.821 3.5879-16.264 0-1.5559-16.273-10.363-28.266-15.297-10.685-4.3962-25.563-8.9263-29.65-9.1855zm-40.842 59.273a120.71 120.71 0 0 1 120.71 120.71 120.71 120.71 0 0 1-120.71 120.71 120.71 120.71 0 0 1-120.71-120.71 120.71 120.71 0 0 1 120.71-120.71z"
        fill="#C59457" stroke-width=".0020038">
        <animateTransform id="gear_logo" attributeName="transform" type="rotate" from="0 190 190" to="1080 190 190"
            begin="0s;gear_logo.end" dur="10s">

        </animateTransform>
    </path>
</svg>