<?xml version="1.0" encoding="utf-8"?>
<!-- Svg Vector Icons : http://www.onlinewebfonts.com/icon -->
<!DOCTYPE svg PUBLIC "-//W3C//DTD SVG 1.1//EN" "http://www.w3.org/Graphics/SVG/1.1/DTD/svg11.dtd">
<svg version="1.1" xmlns="http://www.w3.org/2000/svg" xmlns:xlink="http://www.w3.org/1999/xlink" x="0px" y="0px" viewBox="0 0 1000 1000" enable-background="new 0 0 1000 1000" xml:space="preserve">
<metadata> Svg Vector Icons : http://www.onlinewebfonts.com/icon </metadata>
<g><path d="M696.2,53.8C448.5-53.6,159.1,59.2,50.9,305.2c-108.1,246.1,5.5,533.6,253.2,641c72.5,31.5,148.6,44,222.7,39.9c63.8-3.6,126-19.7,183.4-46.7l0.1,0.4c5.8-2.1,56.8-22.1,71.1-70.4c8.8-30,0.7-62.1-23.3-95c7.2-8,8.3-19.3,2.7-28.2v-0.1l-91.3-143.8c-7-11.3-21.7-14.1-32.7-7.4l-46.6,39.1c-22.6,10.8-43.7-11.8-81.2-59.4l-78-122.5c-15.5-31.5-28.2-63.6-6.3-79.8l53.6-28v-0.1c11.6-7.3,14.1-22,7.3-32.5v-0.1l-91.3-143.9c-6.9-11.1-21.5-14.3-32.6-7.4l-47.7,37.2c-28.1,24.4-96.7,137.4,53,379.2c155.3,251.1,296.2,245.5,331.6,227.9l15.5-7.2l-5,3.2c14,18.4,24.5,39.8,21,52.1c-4.5,15.7-32.2,34.1-43,39.4c-52.4,24.7-109.6,39-168,41.6c-64.6,2.9-130.8-8.4-193.9-35.9C104.3,802.1,3,545.7,99.6,326.3C196,106.9,454.1,6.3,675,102c219.9,95.4,321.1,349.9,226.9,568.6c-2.4,2.5-5,11.4-5.8,14.8c-3.1,12.2,7.2,18.9,22.3,22.6c15.1,3.8,17.3,3.8,27.3-6.1c0.3-1.1,5.6-11.2,5.6-12.4C1055.5,444.7,942.2,160.4,696.2,53.8"/></g>
</svg>