<?xml version="1.0" encoding="UTF-8"?>
<svg version="1.1" width="26" height="26" viewBox="0 0 24 14" xmlns="http://www.w3.org/2000/svg"><path d="m23.449 0.94799c0.1668-0.54645 0-0.94799-0.794-0.94799h-2.6256c-0.6676 0-0.9754 0.34687-1.1423 0.72936 0 0-1.3353 3.1967-3.2268 5.2731-0.6119 0.6011-0.8901 0.7924-1.2239 0.7924-0.1669 0-0.4173-0.1913-0.4173-0.7377v-5.1092c0-0.65574-0.1849-0.94799-0.7413-0.94799h-4.126c-0.41719 0-0.6681 0.30434-0.6681 0.59278 0 0.62163 0.94571 0.76499 1.0432 2.5136v3.7978c0 0.8326-0.15309 0.9836-0.4869 0.9836-0.89009 0-3.0552-3.211-4.3394-6.8852-0.25166-0.71414-0.50407-1.0026-1.1751-1.0026h-2.6256c-0.75017 0-0.90022 0.34687-0.90022 0.72936 0 0.68308 0.89014 4.071 4.1446 8.5518 2.1696 3.06 5.2265 4.7188 8.0082 4.7188 1.669 0 1.8755-0.3684 1.8755-1.003v-2.3128c0-0.7368 0.1581-0.8839 0.6866-0.8839 0.3894 0 1.057 0.1913 2.6147 1.6667 1.7803 1.7486 2.0738 2.533 3.0751 2.533h2.6257c0.7501 0 1.1252-0.3684 0.9088-1.0955-0.2368-0.7246-1.0867-1.7759-2.2145-3.0222-0.612-0.7104-1.53-1.4754-1.8082-1.858-0.3894-0.4917-0.2781-0.7103 0-1.1474 0 0 3.199-4.4262 3.5328-5.9289z" clip-rule="evenodd" fill="#fff" fill-rule="evenodd"/></svg>
