<?xml version="1.0" encoding="UTF-8"?>
<svg version="1.0" viewBox="0 0 253.09 253" xmlns="http://www.w3.org/2000/svg"><g transform="translate(-2.0814 -1.43)"><g fill="#AA203E"><path d="m48.085 134.06c1.6358-1.7527 2.5005-3.765 2.5005-6.1772 0-2.4096-0.86465-4.4297-2.5005-6.0785-1.7345-1.7267-3.7598-2.594-6.1668-2.594-2.4148 0-4.4375 0.86725-6.1668 2.594-1.6358 1.6488-2.5109 3.6689-2.5109 6.0785 0 2.4122 0.87504 4.4245 2.5109 6.1772 1.7293 1.628 3.7494 2.4979 6.1668 2.4979 2.407 0 4.4323-0.86985 6.1668-2.4979z" color="#000000" stroke-width="2.5966" style="-inkscape-stroke:none"/><path d="m41.918 117.91c-2.7256 0-5.1503 1.0438-7.084 2.9746l-4e-3 4e-3c-1.8462 1.8609-2.8887 4.2683-2.8887 6.9922 0 2.7262 1.0449 5.1182 2.8613 7.0644l0.02734 0.0293 0.03125 0.0293c1.9287 1.8157 4.3278 2.8516 7.0566 2.8516 2.7198 0 5.1207-1.0344 7.0547-2.8496l0.03125-0.0293 0.0293-0.0312c1.8183-1.9482 2.8496-4.342 2.8496-7.0644 0-2.7202-1.0288-5.1294-2.877-6.9922l-2e-3 -2e-3 -0.0039-4e-3c-1.9386-1.9299-4.3632-2.9727-7.082-2.9727zm0 2.5977c2.0936 0 3.7167 0.69168 5.2461 2.2129 1.4213 1.434 2.123 3.0627 2.123 5.1602 0 2.0849-0.69569 3.7082-2.125 5.2539-1.526 1.4206-3.1645 2.123-5.2441 2.123-2.0916 0-3.7231-0.70242-5.2441-2.123-1.4319-1.548-2.1348-3.1723-2.1348-5.2539 0-2.0927 0.70702-3.7228 2.1289-5.1582 1.5249-1.5226 3.146-2.2148 5.25-2.2148z" color="#000000" style="-inkscape-stroke:none"/><path d="m57.336 84.188c-11.964 0-22.378 4.3064-30.783 12.803-0.0017 0.0017-0.0022 0.0042-0.0039 0.0059s-0.0042 0.0022-0.0059 0.0039c-8.595 8.504-12.898 18.92-12.898 30.879 0 12.05 4.3059 22.487 12.912 30.893 1e-3 1e-3 9.09e-4 3e-3 2e-3 4e-3 8.4045 8.4973 18.817 12.791 30.777 12.791 12.057 0 22.472-4.2997 30.973-12.803 8.4067-8.4045 12.709-18.833 12.709-30.885 0-11.963-4.3023-22.374-12.703-30.879l-0.0059-0.0059c-8.5-8.5001-18.913-12.807-30.973-12.807zm0 2.5957c11.448 0 21.067 3.981 29.133 12.045 7.971 8.071 11.953 17.704 11.953 29.051 0 11.442-3.9828 21.085-11.949 29.049-8.0656 8.0681-17.689 12.043-29.137 12.043-11.354 0-20.981-3.9747-28.947-12.037l-0.0156-0.016c-8.1551-7.9631-12.133-17.597-12.133-29.039 0-11.348 3.9771-20.972 12.139-29.043l0.0039-0.0059 0.0059-0.0039c7.9668-8.0574 17.594-12.043 28.947-12.043z" color="#000000" style="-inkscape-stroke:none"/><path d="m81.412 54.428c-20.249-0.10472-37.597 7.194-51.873 21.473-14.376 14.381-21.678 31.732-21.678 52.08 0 20.237 7.2981 37.688 21.678 51.977 14.281 14.276 31.634 21.471 51.881 21.471 20.341 0 37.693-7.194 52.074-21.467l4e-3 -4e-3c14.283-14.291 21.477-31.743 21.477-51.977 0-20.344-7.1967-37.693-21.475-52.076l-2e-3 -0.0039-4e-3 -0.0039c-14.375-14.275-31.725-21.573-52.068-21.469-0.0046 2.4e-5 -9e-3 -2.4e-5 -0.01367 0zm0.0059 1.2988 0.0078 1.2988c19.726-0.1048 36.283 6.8571 50.238 20.715 13.848 13.954 20.713 30.507 20.713 50.24 0 19.622-6.8685 36.284-20.715 50.139-13.952 13.847-30.509 20.711-50.242 20.711-19.636 0-36.195-6.8645-50.045-20.709l-2e-3 -2e-3h-2e-3c-13.947-13.857-20.914-30.52-20.914-50.139 0-19.732 6.9658-36.287 20.918-50.244 13.852-13.854 30.409-20.816 50.037-20.711z" color="#000000" style="-inkscape-stroke:none"/><path d="m128.62 1.4297c-34.8 0-64.772 12.397-89.363 36.986-24.688 24.691-37.083 54.56-37.18 89.461v6e-3c0.096913 34.983 12.492 64.86 37.18 89.551 24.592 24.599 54.564 36.996 89.363 36.996 34.993 0 64.867-12.398 89.553-36.994v-2e-3c24.689-24.692 36.992-54.57 36.992-89.555 0-34.898-12.303-64.771-36.992-89.463l-2e-3 -2e-3c-24.683-24.586-54.556-36.984-89.551-36.984zm0 2.5977c34.385 1e-7 63.467 12.07 87.719 36.227 24.254 24.258 36.23 53.336 36.23 87.625 0 34.378-11.976 63.459-36.23 87.717-24.254 24.167-53.337 36.238-87.719 36.238-34.186 0-63.369-12.073-87.525-36.236-24.255-24.258-36.325-53.341-36.422-87.715v-2e-3c-3.7e-6 -1e-3 3.6e-6 -3e-3 0-4e-3 0.09661-34.29 12.166-63.367 36.422-87.625 24.156-24.153 53.34-36.225 87.525-36.225z" color="#000000" style="-inkscape-stroke:none"/><path d="m41.92 105.4c-6.0945 0-11.484 2.2612-15.844 6.5176l-0.0078 6e-3 -0.0059 6e-3c-4.3501 4.3638-6.6387 9.7548-6.6387 15.953 0 6.1762 2.2876 11.59 6.6406 15.945 4.3679 4.3733 9.7738 6.5469 15.855 6.5469 6.1728 0 11.583-2.1751 15.945-6.5488 4.362-4.3625 6.5488-9.7815 6.5488-15.943 0-6.185-2.192-11.583-6.5488-15.953l-0.0118-0.012c-4.3554-4.2598-9.7486-6.5176-15.934-6.5176zm0 2.5957c5.5641 0 10.187 1.936 14.113 5.7734 3.9168 3.9319 5.7852 8.5283 5.7852 14.113 0 5.5636-1.8688 10.189-5.7891 14.109h-2e-3c-3.9202 3.93-8.5282 5.7871-14.107 5.7871-5.4782 0-10.094-1.8567-14.02-5.7871-3.9248-3.9272-5.8809-8.5595-5.8809-14.109 0-5.5735 1.9545-10.178 5.8809-14.117 6.72e-4 -6.8e-4 0.0013-1e-3 2e-3 -2e-3 3.9303-3.831 8.5584-5.7676 14.018-5.7676z" color="#000000" style="-inkscape-stroke:none"/><g stroke-width="2.5966"><path d="m216.01 157.36h-7.7066l-13.967 35.832h7.7066l2.986-8.1792h14.255l3.1808 8.1792h7.9039zm-3.9494 8.2882 4.9127 13.388h-9.7293z"/><path d="m116.78 157.36h-7.2288l-14.548 23.795v-23.795h-6.7458v35.832h7.2262l14.447-23.405v23.405h6.8445v-35.832z"/><path d="m151.17 161.41c-1.4489-1.8306-3.0847-2.9886-5.1983-3.5625-1.3502-0.28303-4.2454-0.48296-8.5816-0.48296h-11.651v35.832h7.221v-13.577h4.7231c3.2743 0 5.7825-0.0961 7.5118-0.48296 1.2515-0.28302 2.5083-0.86465 3.7572-1.6358 1.2515-0.88283 2.2175-2.124 3.0821-3.5625 0.77378-1.5527 1.1633-3.3755 1.1633-5.5956 0-2.7913-0.6777-5.2035-2.0279-6.9328zm-18.21 2.0253h3.5651c2.5031 0 4.3336 0.0909 5.2009 0.18176 1.1581 0.19215 2.1188 0.77118 2.8952 1.6488 0.6751 0.76599 1.1529 1.924 1.1529 3.1678 0 1.0698-0.28822 2.0331-0.86725 2.8069-0.57903 0.85686-1.2515 1.4307-2.2123 1.7293-0.96851 0.38429-2.8926 0.57904-5.7799 0.57904h-3.952v-10.114z"/><path d="m186.24 161.88c-2.9782-3.4664-7.0263-5.2009-12.232-5.2009-4.0506 0-7.3275 0.97371-9.828 2.8926-2.5031 1.9318-4.1415 4.4297-4.814 7.6131l7.1275 1.6332c0.57904-1.7293 1.5372-3.173 2.7913-4.2428 1.3502-1.0542 2.986-1.6306 4.9153-1.6306 2.5109 0 4.6271 0.85946 6.0707 2.7004 1.5424 1.7319 2.4096 3.9494 2.6978 6.6394h-11.269v5.9825h11.269c-0.47776 3.2742-1.4463 5.6813-2.89 7.125-1.5398 1.545-3.3651 2.2174-5.4891 2.2174-2.0279 0-3.752-0.58422-5.3022-1.8332-1.4411-1.2567-2.3992-3.1808-2.7913-5.7851l-7.2262 2.3187c1.8306 7.7066 6.9354 11.555 15.125 11.555 3.2768 0 6.1746-0.85686 8.5738-2.3031 2.3109-1.5476 4.2402-3.6741 5.5904-6.359 1.345-2.703 2.0253-5.9877 2.0253-9.7423-3e-3 -5.5774-1.4489-10.098-4.344-13.58z"/></g><path transform="matrix(2.5966 0 0 2.5966 2.0814 1.43)" d="m27.121 73.854h3.046l-3.508-13.8h-3.234l-2.595 8.414-3.988-19.769h-2.999l-4.794 25.155h2.999l3.325-17.41 3.539 17.41h3.341l2.687-8.629z"/></g></g></svg>
