<?xml version="1.0" encoding="UTF-8" standalone="no"?>
<svg
   version="1.1"
   xml:space="preserve"
   width="500mm"
   height="400mm"
   viewBox="0 0 500 400"
   fill="none"
   id="svg91"
   sodipodi:docname="image-placeholder.svg"
   inkscape:version="1.2.2 (732a01da63, 2022-12-09)"
   xmlns:inkscape="http://www.inkscape.org/namespaces/inkscape"
   xmlns:sodipodi="http://sodipodi.sourceforge.net/DTD/sodipodi-0.dtd"
   xmlns="http://www.w3.org/2000/svg"
   xmlns:svg="http://www.w3.org/2000/svg"><sodipodi:namedview
     id="namedview93"
     pagecolor="#505050"
     bordercolor="#ffffff"
     borderopacity="1"
     inkscape:showpageshadow="0"
     inkscape:pageopacity="0"
     inkscape:pagecheckerboard="1"
     inkscape:deskcolor="#505050"
     showgrid="false"
     inkscape:zoom="1.8580333"
     inkscape:cx="297.89564"
     inkscape:cy="894.49421"
     inkscape:window-width="1920"
     inkscape:window-height="1017"
     inkscape:window-x="-8"
     inkscape:window-y="-8"
     inkscape:window-maximized="1"
     inkscape:current-layer="layer2"
     inkscape:document-units="mm" /><defs
     id="defs89"><linearGradient
       id="paint0_linear"
       x1="80.4599"
       y1="51.153702"
       x2="1.21561"
       y2="45.877701"
       gradientUnits="userSpaceOnUse"><stop
         stop-color="#8E8E93"
         id="stop74" /><stop
         offset="1"
         stop-color="#8E8E93"
         stop-opacity="0"
         id="stop76" /></linearGradient><linearGradient
       id="paint1_linear"
       x1="228.464"
       y1="20.291"
       x2="228.464"
       y2="52.1716"
       gradientUnits="userSpaceOnUse"><stop
         stop-color="#8E8E93"
         id="stop79" /><stop
         offset="1"
         stop-color="#8E8E93"
         stop-opacity="0"
         id="stop81" /></linearGradient><linearGradient
       id="paint2_linear"
       x1="229.48199"
       y1="23.7969"
       x2="229.48199"
       y2="55.623798"
       gradientUnits="userSpaceOnUse"><stop
         stop-color="#8E8E93"
         id="stop84" /><stop
         offset="1"
         stop-color="#8E8E93"
         stop-opacity="0"
         id="stop86" /></linearGradient><filter
       style="color-interpolation-filters:sRGB;"
       inkscape:label="Drop Shadow"
       id="filter3116"
       x="-0.01557252"
       y="-0.04915645"
       width="1.0334351"
       height="1.110361"><feFlood
         flood-opacity="0.372549"
         flood-color="rgb(0,0,0)"
         result="flood"
         id="feFlood3106" /><feComposite
         in="flood"
         in2="SourceGraphic"
         operator="in"
         result="composite1"
         id="feComposite3108" /><feGaussianBlur
         in="composite1"
         stdDeviation="1.7"
         result="blur"
         id="feGaussianBlur3110" /><feOffset
         dx="0.6"
         dy="1"
         result="offset"
         id="feOffset3112" /><feComposite
         in="SourceGraphic"
         in2="offset"
         operator="over"
         result="composite2"
         id="feComposite3114" /></filter></defs><g
     inkscape:groupmode="layer"
     id="layer2"
     inkscape:label="Layer 2"><g
       inkscape:groupmode="layer"
       id="layer1"
       inkscape:label="Layer 1"><path
         style="fill:#ffffff;stroke:none;stroke-width:1;stroke-linejoin:round;stroke-dasharray:1, 2;paint-order:markers stroke fill"
         d="m -9.191289,231.63464 c 3.7377531,2.94626 9.33216261,7.14424 21.310945,10.55235 4.895352,1.39279 17.661076,4.53719 52.094174,-3.91222 0.701235,6.13281 0.638947,8.08449 4.125535,12.55032 -25.686663,7.11174 -44.735433,11.02318 -72.4327988,1.56858 C -16.485932,234.50576 -22.195987,221.07811 -9.191289,231.63464 Z"
         id="path332"
         sodipodi:nodetypes="cscccc"
         inkscape:transform-center-x="4.7845898"
         inkscape:transform-center-y="-2.4305465" /><path
         style="fill:#ffffff;stroke:none;stroke-width:1;stroke-linejoin:round;stroke-dasharray:1, 2;paint-order:markers stroke fill"
         d="m 69.532655,244.30818 c -1.337082,-1.2776 -0.345713,-8.26925 4.949514,-9.65888 9.238462,-2.42446 27.829841,-6.61559 27.829841,-6.61559 l 1.75232,7.27615 c 0,0 -25.898612,14.45647 -34.531675,8.99832 z"
         id="path1260"
         sodipodi:nodetypes="csccc" /><path
         style="fill:#ffffff;stroke:none;stroke-width:1;stroke-linejoin:round;stroke-dasharray:1, 2;paint-order:markers stroke fill"
         d="m 113.52748,256.14899 36.5269,-9.42481 -11.9554,-51.60504 -24.07334,5.45787 c 0,0 -11.95267,2.52923 -9.46343,14.22409 2.14876,10.09523 8.96527,41.34789 8.96527,41.34789 z"
         id="path1315"
         sodipodi:nodetypes="ccccsc" /><path
         style="fill:#ffffff;stroke:none;stroke-width:1;stroke-linejoin:round;stroke-dasharray:1, 2;paint-order:markers stroke fill"
         d="m 76.020323,230.00041 c 0,0 -7.288462,0.84244 -10.109214,7.49379 -5.470538,1.71729 -4.50042,10.75303 3.486588,13.86003 3.91972,2.15522 6.658388,2.67728 9.234899,1.95168 7.368725,-2.07518 29.417344,-6.61588 29.417344,-6.61588 l -5.31272,-22.92374 z"
         id="path1371"
         sodipodi:nodetypes="cccsccc" /></g><g
       id="g4127"
       transform="matrix(2.8515479,0,0,2.8515479,-123.55278,81.660333)"
       style="filter:url(#filter3116)"><path
         d="m 117.842,55.3915 3.377,-0.87 0.873,3.7121 -1.048,1.972 -2.329,-0.87 z"
         fill="#dfdee2"
         id="path3091" /><path
         d="m 164.71,68.4411 c -0.174,0 -0.291,-0.058 -0.465,-0.116 l -8.443,-5.1041 c -0.407,-0.232 -0.524,-0.812 -0.291,-1.218 0.233,-0.406 0.815,-0.522 1.223,-0.29 l 8.442,5.1041 c 0.408,0.232 0.524,0.812 0.291,1.218 -0.174,0.29 -0.466,0.406 -0.757,0.406 z"
         fill="#8e8e93"
         id="path3094" /><path
         d="m 151.494,78.9978 c -0.292,0 -0.583,-0.116 -0.757,-0.406 l -5.706,-8.8162 c -0.291,-0.406 -0.175,-0.928 0.233,-1.218 0.407,-0.232 0.931,-0.174 1.222,0.232 l 5.706,8.8162 c 0.291,0.406 0.175,0.928 -0.233,1.218 -0.116,0.116 -0.291,0.174 -0.465,0.174 z"
         fill="#8e8e93"
         id="path3097" /><path
         d="m 134.201,83.0003 c -0.524,0 -0.873,-0.406 -0.873,-0.87 l 0.291,-9.8023 c 0,-0.464 0.466,-0.87 0.874,-0.87 0.465,0 0.873,0.406 0.873,0.87 l -0.291,9.8023 c 0,0.522 -0.408,0.87 -0.874,0.87 z"
         fill="#8e8e93"
         id="path3100" /><path
         d="m 117.725,79.7517 c -0.174,0 -0.291,-0.058 -0.466,-0.116 -0.407,-0.232 -0.524,-0.754 -0.291,-1.218 l 5.182,-8.6423 c 0.233,-0.406 0.757,-0.522 1.223,-0.29 0.407,0.232 0.524,0.7541 0.291,1.2181 l -5.182,8.6422 c -0.116,0.232 -0.407,0.406 -0.757,0.406 z"
         fill="#8e8e93"
         id="path3103" /><path
         d="m 109.109,21.4607 c -0.175,0 -0.291,-0.058 -0.466,-0.116 l -8.442,-5.1042 c -0.4077,-0.232 -0.5242,-0.812 -0.2913,-1.218 0.2333,-0.406 0.8153,-0.522 1.2223,-0.29 l 8.443,5.1041 c 0.407,0.232 0.524,0.812 0.291,1.2181 -0.175,0.232 -0.466,0.406 -0.757,0.406 z"
         fill="#8e8e93"
         id="path3106" /><path
         d="m 119.589,14.5584 c -0.291,0 -0.582,-0.116 -0.757,-0.406 l -5.705,-8.81625 c -0.292,-0.40601 -0.175,-0.92802 0.232,-1.21803 0.408,-0.23201 0.932,-0.174 1.223,0.23201 l 5.706,8.81617 c 0.291,0.406 0.175,0.9281 -0.233,1.2181 -0.116,0.116 -0.291,0.174 -0.466,0.174 z"
         fill="#8e8e93"
         id="path3109" /><path
         d="m 130.883,11.5423 c 0,0 -0.058,0 0,0 -0.524,0 -0.873,-0.406 -0.873,-0.87 l 0.291,-9.802279 C 130.301,0.40601 130.708,0 131.174,0 c 0.466,0 0.874,0.40601 0.874,0.870021 l -0.292,9.802279 c 0,0.464 -0.407,0.87 -0.873,0.87 z"
         fill="#8e8e93"
         id="path3112" /><path
         d="m 142.469,13.6306 c -0.174,0 -0.291,-0.058 -0.465,-0.116 -0.408,-0.232 -0.524,-0.754 -0.292,-1.218 l 5.124,-8.64225 c 0.233,-0.40601 0.757,-0.52202 1.223,-0.29001 0.407,0.23201 0.524,0.75402 0.291,1.21803 l -5.124,8.64223 c -0.174,0.232 -0.466,0.406 -0.757,0.406 z"
         fill="#8e8e93"
         id="path3115" /><path
         d="m 96.125,59.0449 21.251,-5.1621 1.572,5.9742 -17.874,4.4661 -3.6681,-1.5081 z"
         fill="#dfdee2"
         id="path3118" /><path
         d="m 82.6758,60.9598 13.2746,-3.0741 1.4556,4.1761 -10.5382,2.2621 -3.7262,-1.566 z"
         fill="#dfdee2"
         id="path3121" /><path
         d="m 67.2461,57.0151 c 0.6404,-0.058 13.4493,-3.3061 13.4493,-3.3061 l 0.7569,3.3061 -11.2369,2.32 -2.5035,-0.812 z"
         fill="#dfdee2"
         id="path3124" /><path
         d="m 100.842,65.02 c -2.3293,0 -4.3089,-1.566 -4.8329,-3.8281 L 91.2349,40.4274 c -0.5822,-2.6681 1.048,-5.2781 3.7262,-5.9161 l 17.8739,-4.0601 6.987,30.3927 -17.874,4.0601 c -0.35,0.116 -0.757,0.116 -1.106,0.116 z m 10.712,-32.4808 -16.1853,3.7121 c -1.7467,0.406 -2.7947,2.0881 -2.3871,3.8281 l 4.7742,20.7645 c 0.3493,1.45 1.6302,2.4941 3.1442,2.4941 0.233,0 0.466,0 0.698,-0.058 l 16.186,-3.7121 z"
         fill="#8e8e93"
         id="path3127" /><path
         d="m 120.345,61.3074 c -1.339,0 -2.503,-1.102 -2.853,-2.5521 l -5.88,-25.6366 c -0.408,-1.74 0.524,-3.3641 1.979,-3.7121 0.175,-0.058 0.35,-0.058 0.524,-0.058 1.339,0 2.504,1.1021 2.853,2.5521 l 5.881,25.6366 c 0.174,0.812 0.116,1.624 -0.233,2.3201 -0.35,0.754 -0.99,1.276 -1.747,1.45 -0.175,0 -0.349,0 -0.524,0 z m -6.23,-30.2187 c -0.058,0 -0.116,0 -0.174,0 -0.524,0.116 -0.874,0.87 -0.641,1.624 l 5.881,25.6366 c 0.174,0.754 0.757,1.2761 1.339,1.1601 0.291,-0.058 0.466,-0.3481 0.582,-0.5221 0.175,-0.348 0.175,-0.754 0.116,-1.16 L 115.28,32.2487 c -0.175,-0.638 -0.641,-1.16 -1.165,-1.16 z"
         fill="#8e8e93"
         id="path3130" /><path
         d="m 87.2747,65.1931 c -2.7364,0 -5.24,-1.798 -5.8804,-4.5241 l -3.144,-13.5723 c -0.6987,-3.1321 1.3391,-6.3222 4.6577,-7.0762 l 8.4423,-1.9141 0.4075,1.6821 -8.4422,1.914 c -2.3289,0.522 -3.8427,2.7841 -3.3187,4.9882 l 3.144,13.5723 c 0.524,2.204 2.8529,3.5961 5.1818,3.074 l 8.4422,-1.914 0.4076,1.682 -8.4422,1.9141 c -0.524,0.116 -0.9898,0.174 -1.4556,0.174 z"
         fill="#8e8e93"
         id="path3133" /><path
         d="m 87.4505,57.4217 c -0.4076,0 -0.7569,-0.29 -0.8734,-0.696 l -2.0378,-8.8163 c -0.1164,-0.464 0.1747,-0.928 0.6405,-1.044 0.4658,-0.116 0.9316,0.174 1.048,0.638 l 2.0378,8.8162 c 0.1164,0.4641 -0.1747,0.9281 -0.6405,1.0441 -0.0582,0.058 -0.1164,0.058 -0.1746,0.058 z"
         fill="#8e8e93"
         id="path3136" /><path
         d="m 90.302,56.783 c -0.4075,0 -0.7569,-0.29 -0.8733,-0.696 l -2.0378,-8.8162 c -0.1164,-0.464 0.1747,-0.928 0.6404,-1.044 0.4658,-0.1161 0.9316,0.174 1.048,0.638 l 2.0378,8.8162 c 0.1165,0.464 -0.1746,0.928 -0.6404,1.044 -0.0582,0.058 -0.1165,0.058 -0.1747,0.058 z"
         fill="#8e8e93"
         id="path3139" /><path
         d="m 81.9187,56.8993 c -0.1165,-0.464 -0.5823,-0.754 -1.048,-0.638 L 70.74,58.5814 c -1.3973,0.29 -2.7364,-0.5221 -3.0275,-1.9141 -0.1747,-0.638 -0.0583,-1.334 0.3493,-1.914 0.3493,-0.58 0.9315,-0.9861 1.572,-1.1021 l 10.1307,-2.32 c 0.4657,-0.116 0.7568,-0.58 0.6404,-1.044 -0.1164,-0.4641 -0.5822,-0.7541 -1.048,-0.6381 l -10.1307,2.3201 c -1.1062,0.232 -2.0377,0.928 -2.6782,1.914 -0.1164,0.174 -0.2329,0.3481 -0.2911,0.5801 -0.7569,0.29 -14.0898,4.8141 -22.7649,0.29 C 39.9404,52.8972 37.4951,49.6491 36.3307,45.125 34.9333,39.7889 31.8476,35.9608 27.0733,33.7568 19.3298,30.0447 8.61689,31.4947 0,33.7568 v 1.798 c 8.384,-2.3201 18.864,-3.8281 26.2582,-0.348 4.2502,1.972 7.0449,5.4521 8.2676,10.2662 1.3391,4.9882 4.0173,8.6422 8.0346,10.7303 8.1512,4.2341 19.7956,1.16 23.2307,0.116 0,0.232 0.0582,0.464 0.1165,0.754 0.0582,0.29 0.1746,0.638 0.3493,0.87 -1.9796,0.6381 -7.1613,2.1461 -12.8671,2.2041 -4.4831,0.058 -8.384,-0.754 -11.5862,-2.3781 -4.4832,-2.32 -7.5107,-6.3221 -8.908,-11.8322 C 31.7311,41.5869 29.344,38.5709 25.5596,36.8308 18.5147,33.5248 8.20933,35.0908 0,37.4108 v 1.8561 c 7.97645,-2.2621 18.1071,-4.0021 24.8027,-0.812 3.3186,1.566 5.4146,4.1761 6.4044,8.0042 1.572,6.0321 4.8907,10.3242 9.8396,12.9343 3.3186,1.74 7.336,2.61 11.9355,2.61 h 0.4658 c 6.7538,-0.116 12.576,-1.972 14.0316,-2.494 0.7569,0.58 1.6884,0.986 2.6782,0.986 0.2911,0 0.6404,-0.058 0.9315,-0.116 L 81.22,58.0593 c 0.524,-0.232 0.8151,-0.696 0.6987,-1.16 z"
         fill="url(#paint0_linear)"
         id="path3142"
         style="fill:url(#paint0_linear)" /><path
         d="m 149.396,46.8071 18.166,-4.6401 1.281,4.9301 -18.457,4.2921 z"
         fill="#dfdee2"
         id="path3145" /><path
         d="m 171.348,39.9627 14.439,-3.3641 -2.154,4.8141 -11.004,2.9581 z"
         fill="#dfdee2"
         id="path3148" /><path
         d="m 133.735,33.9886 c 0,-0.116 11.703,-2.8421 11.703,-2.8421 l 0.466,1.74 -10.888,2.6101 c 0,0 -1.397,-0.174 -1.281,-1.508 z"
         fill="#ffffff"
         id="path3151" /><path
         d="m 137.287,48.3733 c 0,-0.116 11.703,-2.8421 11.703,-2.8421 l 0.465,1.7401 -10.887,2.6101 c 0.058,-0.058 -1.339,-0.174 -1.281,-1.5081 z"
         fill="#ffffff"
         id="path3154" /><path
         d="m 147.01,36.7733 c 0,-0.116 10.771,-2.784 10.771,-2.784 l 0.466,1.74 -10.83,2.7261 c 0,0 -0.233,-0.8121 -0.407,-1.6821 z"
         fill="#ffffff"
         id="path3157" /><path
         d="m 184.156,29.1166 13.275,-3.3061 -1.165,3.8281 -11.411,2.7261 z"
         fill="#dfdee2"
         id="path3160" /><path
         d="m 168.32,43.4427 3.61,-0.9281 0.99,3.6541 -1.339,2.0881 -2.271,-1.276 z"
         fill="#dfdee2"
         id="path3163" /><path
         d="m 171.057,49.0693 c -1.339,0 -2.504,-1.044 -2.853,-2.494 l -6.405,-25.5206 c -0.174,-0.8121 -0.116,-1.6241 0.175,-2.3201 0.349,-0.754 0.99,-1.276 1.689,-1.45 0.174,-0.058 0.407,-0.058 0.582,-0.058 1.339,0 2.503,1.044 2.853,2.494 l 6.404,25.5206 c 0.175,0.8121 0.117,1.6241 -0.175,2.3201 -0.349,0.754 -0.989,1.276 -1.688,1.45 -0.175,0.058 -0.408,0.058 -0.582,0.058 z m -6.754,-30.1027 c -0.058,0 -0.116,0 -0.175,0 -0.291,0.058 -0.465,0.348 -0.582,0.522 -0.175,0.348 -0.175,0.754 -0.058,1.16 l 6.404,25.5207 c 0.175,0.754 0.815,1.276 1.339,1.16 0.292,-0.058 0.466,-0.348 0.583,-0.522 0.174,-0.348 0.174,-0.754 0.058,-1.1601 l -6.405,-25.5206 c -0.174,-0.638 -0.64,-1.16 -1.164,-1.16 z"
         fill="#8e8e93"
         id="path3166" /><path
         d="m 135.54,36.3667 c -0.524,0 -0.989,-0.116 -1.397,-0.29 -0.757,-0.348 -1.281,-0.986 -1.455,-1.682 -0.175,-0.7541 0,-1.5081 0.465,-2.2041 0.466,-0.638 1.165,-1.044 1.922,-1.276 l 9.781,-2.4361 0.408,1.6821 -9.782,2.436 c -0.407,0.116 -0.757,0.348 -0.99,0.58 -0.116,0.116 -0.291,0.406 -0.174,0.7541 0.058,0.29 0.349,0.464 0.524,0.58 0.349,0.174 0.757,0.174 1.164,0.058 l 9.84,-2.4361 0.407,1.682 -9.839,2.4361 c -0.291,0.058 -0.582,0.116 -0.874,0.116 z"
         fill="#8e8e93"
         id="path3169" /><path
         d="m 139.15,50.8677 c -1.397,0 -2.562,-0.812 -2.911,-2.0301 -0.35,-1.45 0.698,-3.016 2.445,-3.422 l 9.781,-2.4361 0.408,1.682 -9.781,2.4361 c -0.757,0.174 -1.281,0.812 -1.165,1.334 0.117,0.522 0.874,0.812 1.63,0.638 l 9.84,-2.436 0.408,1.682 -9.84,2.4361 c -0.233,0.058 -0.524,0.116 -0.815,0.116 z"
         fill="#8e8e93"
         id="path3172" /><path
         d="m 148.175,40.8909 -0.408,-1.7401 10.073,-2.494 -0.524,-1.9721 -10.131,2.5521 -0.408,-1.682 11.819,-2.9581 1.34,5.3361 z"
         fill="#8e8e93"
         id="path3175" /><path
         d="m 149.864,52.5495 -6.928,-27.7827 20.377,-5.0461 6.929,27.7827 z m -4.832,-26.5646 6.113,24.4185 17.001,-4.2341 -6.114,-24.4185 z"
         fill="#8e8e93"
         id="path3178" /><path
         d="m 173.384,45.0667 -0.407,-1.682 8.384,-2.0881 c 1.164,-0.29 2.096,-0.986 2.736,-1.914 0.583,-0.928 0.815,-2.0301 0.524,-3.1321 l -3.377,-13.5143 c -0.291,-1.044 -0.931,-1.9721 -1.921,-2.4941 -0.99,-0.58 -2.154,-0.696 -3.319,-0.464 l -8.384,2.0881 -0.407,-1.6821 8.384,-2.088 c 1.572,-0.406 3.202,-0.174 4.599,0.638 1.398,0.812 2.388,2.088 2.737,3.5961 l 3.377,13.5143 c 0.407,1.508 0.116,3.1321 -0.757,4.4661 -0.873,1.334 -2.213,2.3201 -3.785,2.6681 z"
         fill="#8e8e93"
         id="path3181" /><path
         d="m 184.68,33.409 c -0.408,0 -0.757,-0.29 -0.874,-0.638 -0.116,-0.464 0.175,-0.928 0.641,-1.044 l 10.072,-2.4941 c 1.339,-0.348 2.213,-1.7401 1.863,-3.0741 -0.349,-1.334 -1.746,-2.204 -3.085,-1.856 l -10.073,2.494 c -0.466,0.116 -0.931,-0.174 -1.048,-0.638 -0.116,-0.464 0.175,-0.928 0.641,-1.044 l 10.072,-2.4941 c 2.271,-0.58 4.658,0.8121 5.182,3.1321 0.582,2.2621 -0.815,4.6401 -3.144,5.1621 l -10.073,2.4941 c -0.058,-0.058 -0.116,0 -0.174,0 z"
         fill="#8e8e93"
         id="path3184" /><path
         d="m 176.18,36.4248 c -0.408,0 -0.757,-0.29 -0.874,-0.638 l -2.212,-8.7582 c -0.116,-0.464 0.175,-0.928 0.64,-1.044 0.466,-0.116 0.932,0.174 1.048,0.638 l 2.213,8.7582 c 0.116,0.464 -0.175,0.928 -0.641,1.044 -0.058,0 -0.116,0 -0.174,0 z"
         fill="#8e8e93"
         id="path3187" /><path
         d="m 179.033,35.7295 c -0.407,0 -0.757,-0.29 -0.873,-0.638 l -2.212,-8.7582 c -0.117,-0.464 0.174,-0.928 0.64,-1.044 0.466,-0.1161 0.932,0.174 1.048,0.638 l 2.212,8.7582 c 0.117,0.464 -0.174,0.928 -0.64,1.044 0,-0.058 -0.058,0 -0.175,0 z"
         fill="#8e8e93"
         id="path3190" /><path
         d="m 262,50.4038 v 1.7401 c -4.891,0.174 -11.179,-0.406 -15.895,-3.6541 -3.726,-2.5521 -5.997,-6.4382 -6.695,-11.6003 -0.699,-4.9301 -3.028,-8.7002 -6.987,-11.1943 -9.898,-6.2061 -27.539,-2.9 -35.865,-0.87 -0.408,-0.638 -0.932,-1.16 -1.63,-1.392 8.034,-2.1461 27.364,-6.2062 38.426,0.754 4.425,2.7841 7.045,6.9602 7.802,12.4123 0.641,4.6401 2.62,8.1202 5.939,10.3823 4.308,3.016 10.247,3.538 14.905,3.422 z"
         fill="url(#paint1_linear)"
         id="path3193"
         style="fill:url(#paint1_linear)" /><path
         d="m 261.999,53.8837 v 1.7401 c -0.466,0 -0.931,0 -1.455,0 -1.398,0 -2.912,-0.058 -4.425,-0.232 -4.775,-0.522 -8.792,-1.8561 -11.994,-4.0601 -4.6,-3.1321 -7.336,-7.8302 -8.209,-13.9784 -0.524,-3.9441 -2.329,-6.7861 -5.415,-8.7002 -8.908,-5.6261 -25.851,-2.262 -33.536,-0.348 0.058,-0.174 0.116,-0.348 0.175,-0.58 0.058,-0.406 0.058,-0.812 0,-1.276 8.151,-2.0301 25.093,-5.1041 34.351,0.696 3.551,2.2041 5.589,5.5101 6.171,9.9182 0.757,5.6262 3.261,9.9763 7.453,12.8183 2.969,2.0301 6.695,3.3061 11.178,3.7701 2.038,0.29 3.959,0.29 5.706,0.232 z"
         fill="url(#paint2_linear)"
         id="path3196"
         style="fill:url(#paint2_linear)" /></g></g></svg>
